<?xml version="1.0" encoding="utf-8"?>
<!-- Generator: Adobe Illustrator 26.3.1, SVG Export Plug-In . SVG Version: 6.00 Build 0)  -->
<svg version="1.1" id="Layer_1" xmlns="http://www.w3.org/2000/svg" xmlns:xlink="http://www.w3.org/1999/xlink" x="0px" y="0px"
	 viewBox="0 0 50 50" enable-background="new 0 0 50 50" xml:space="preserve">
<g id="Layer_x5F_1">
	<g id="_2850759408912">
		<path fill="#222222" d="M19.79,14.62c2.58,0,4.91,1.05,6.6,2.74c1.69,1.69,2.74,4.03,2.74,6.6c0,2.58-1.05,4.91-2.74,6.6
			c-1.69,1.69-4.03,2.74-6.6,2.74v0c-0.04,0-0.08,0-0.12,0v0c-0.04,0-0.08,0-0.12,0v0c-0.04,0-0.08,0-0.12,0v0
			c-0.04,0-0.08,0-0.12-0.01v0c-0.04,0-0.08,0-0.12-0.01v0c-0.04,0-0.08-0.01-0.12-0.01v0c-0.04,0-0.08-0.01-0.12-0.01l0,0
			c-0.04,0-0.08-0.01-0.12-0.01l0,0c-0.04,0-0.08-0.01-0.12-0.01l0,0c-0.04,0-0.08-0.01-0.12-0.01l0,0c-0.04,0-0.08-0.01-0.12-0.02
			l0,0c-0.04-0.01-0.08-0.01-0.12-0.02l0,0c-0.04-0.01-0.08-0.01-0.12-0.02v0c-0.04-0.01-0.08-0.01-0.12-0.02l0,0
			c-0.04-0.01-0.08-0.01-0.11-0.02l0,0c-0.04-0.01-0.08-0.01-0.11-0.02l0,0c-0.04-0.01-0.08-0.02-0.11-0.02l0,0
			c-0.04-0.01-0.08-0.02-0.11-0.03l0,0c-0.04-0.01-0.08-0.02-0.11-0.03l0,0c-0.04-0.01-0.07-0.02-0.11-0.03l0,0
			c-0.04-0.01-0.07-0.02-0.11-0.03l0,0c-0.04-0.01-0.07-0.02-0.11-0.03l0,0c-0.04-0.01-0.07-0.02-0.11-0.03l0,0
			c-0.04-0.01-0.07-0.02-0.11-0.03l0,0c-0.04-0.01-0.07-0.02-0.11-0.03l0,0c-0.04-0.01-0.07-0.02-0.11-0.04l0,0
			c-0.04-0.01-0.07-0.02-0.11-0.04l0,0c-0.04-0.01-0.07-0.03-0.11-0.04l0,0c-0.04-0.01-0.07-0.03-0.11-0.04l0,0
			c-0.04-0.01-0.07-0.03-0.11-0.04l0,0c-0.04-0.01-0.07-0.03-0.11-0.04l0,0c-0.04-0.01-0.07-0.03-0.11-0.04l0,0
			c-0.03-0.01-0.07-0.03-0.1-0.04l0,0c-0.03-0.02-0.07-0.03-0.1-0.05h0c-0.03-0.02-0.07-0.03-0.1-0.05l0,0
			c-0.03-0.02-0.07-0.03-0.1-0.05l0,0c-0.03-0.02-0.07-0.03-0.1-0.05l0,0c-0.03-0.02-0.07-0.03-0.1-0.05h0
			c-0.03-0.02-0.07-0.03-0.1-0.05h0c-0.03-0.02-0.07-0.04-0.1-0.05l0,0c-0.03-0.02-0.07-0.04-0.1-0.05l0,0
			c-0.03-0.02-0.07-0.04-0.1-0.06c-0.03-0.02-0.07-0.04-0.1-0.06l0,0c-0.03-0.02-0.06-0.04-0.1-0.06h0
			c-0.03-0.02-0.06-0.04-0.1-0.06h0c-0.03-0.02-0.06-0.04-0.1-0.06l0,0c-0.03-0.02-0.06-0.04-0.09-0.06h0
			c-0.03-0.02-0.06-0.04-0.09-0.06h0c-0.03-0.02-0.06-0.04-0.09-0.06l0,0c-0.03-0.02-0.06-0.04-0.09-0.06l0,0
			c-0.03-0.02-0.06-0.04-0.09-0.07v0c-0.03-0.02-0.06-0.04-0.09-0.07l0,0c-0.03-0.02-0.06-0.04-0.09-0.07h0
			c-0.03-0.02-0.06-0.05-0.09-0.07v0c-0.03-0.02-0.06-0.05-0.09-0.07v0c-0.03-0.02-0.06-0.05-0.09-0.07
			c-0.03-0.02-0.06-0.05-0.09-0.07l0,0c-0.03-0.02-0.06-0.05-0.09-0.07c-0.03-0.02-0.06-0.05-0.08-0.07
			c-0.03-0.02-0.06-0.05-0.08-0.07c-0.03-0.03-0.06-0.05-0.08-0.08c-0.03-0.03-0.05-0.05-0.08-0.08c-0.03-0.03-0.05-0.05-0.08-0.08
			c-0.03-0.03-0.05-0.05-0.08-0.08c-0.03-0.03-0.05-0.05-0.08-0.08c-0.03-0.03-0.05-0.05-0.08-0.08c-0.03-0.03-0.05-0.05-0.08-0.08
			c-0.03-0.03-0.05-0.05-0.08-0.08c-0.03-0.03-0.05-0.06-0.07-0.08c-0.02-0.03-0.05-0.06-0.07-0.08c-0.02-0.03-0.05-0.06-0.07-0.09
			l0,0c-0.02-0.03-0.05-0.06-0.07-0.09c-0.02-0.03-0.05-0.06-0.07-0.09h0c-0.02-0.03-0.05-0.06-0.07-0.09h0
			c-0.02-0.03-0.05-0.06-0.07-0.09v0c-0.02-0.03-0.05-0.06-0.07-0.09l0,0c-0.02-0.03-0.04-0.06-0.07-0.09h0
			c-0.02-0.03-0.04-0.06-0.07-0.09l0,0c-0.02-0.03-0.04-0.06-0.06-0.09l0,0c-0.02-0.03-0.04-0.06-0.06-0.09v0
			c-0.02-0.03-0.04-0.06-0.06-0.09v0c-0.02-0.03-0.04-0.06-0.06-0.09l0,0c-0.02-0.03-0.04-0.06-0.06-0.1v0
			c-0.02-0.03-0.04-0.06-0.06-0.1v0c-0.02-0.03-0.04-0.06-0.06-0.1l0,0c-0.02-0.03-0.04-0.06-0.06-0.1
			c-0.02-0.03-0.04-0.07-0.06-0.1l0,0c-0.02-0.03-0.04-0.07-0.05-0.1l0,0c-0.02-0.03-0.04-0.07-0.05-0.1v0
			c-0.02-0.03-0.03-0.07-0.05-0.1v0c-0.02-0.03-0.03-0.07-0.05-0.1l0,0c-0.02-0.03-0.03-0.07-0.05-0.1l0,0
			c-0.02-0.03-0.03-0.07-0.05-0.1l0,0c-0.02-0.03-0.03-0.07-0.05-0.1v0c-0.02-0.03-0.03-0.07-0.05-0.1l0,0
			c-0.02-0.03-0.03-0.07-0.04-0.1l0,0c-0.01-0.03-0.03-0.07-0.04-0.11l0,0c-0.01-0.04-0.03-0.07-0.04-0.11l0,0
			c-0.01-0.04-0.03-0.07-0.04-0.11l0,0c-0.01-0.04-0.03-0.07-0.04-0.11l0,0c-0.01-0.04-0.03-0.07-0.04-0.11l0,0
			c-0.01-0.04-0.03-0.07-0.04-0.11l0,0c-0.01-0.04-0.02-0.07-0.04-0.11l0,0c-0.01-0.04-0.02-0.07-0.03-0.11l0,0
			c-0.01-0.04-0.02-0.07-0.03-0.11l0,0c-0.01-0.04-0.02-0.07-0.03-0.11l0,0c-0.01-0.04-0.02-0.07-0.03-0.11l0,0
			c-0.01-0.04-0.02-0.07-0.03-0.11l0,0c-0.01-0.04-0.02-0.07-0.03-0.11l0,0c-0.01-0.04-0.02-0.08-0.03-0.11l0,0
			c-0.01-0.04-0.02-0.08-0.03-0.11l0,0c-0.01-0.04-0.02-0.08-0.02-0.11l0,0c-0.01-0.04-0.02-0.08-0.02-0.11l0,0
			c-0.01-0.04-0.01-0.08-0.02-0.11l0,0c-0.01-0.04-0.01-0.08-0.02-0.12h0c-0.01-0.04-0.01-0.08-0.02-0.12l0,0
			c-0.01-0.04-0.01-0.08-0.02-0.12l0,0c-0.01-0.04-0.01-0.08-0.02-0.12l0,0c0-0.04-0.01-0.08-0.01-0.12l0,0
			c0-0.04-0.01-0.08-0.01-0.12l0,0c0-0.04-0.01-0.08-0.01-0.12l0,0c0-0.04-0.01-0.08-0.01-0.12h0c0-0.04-0.01-0.08-0.01-0.12h0
			c0-0.04,0-0.08-0.01-0.12h0c0-0.04,0-0.08-0.01-0.12h0c0-0.04,0-0.08,0-0.12h0c0-0.04,0-0.08,0-0.12h0c0-0.04,0-0.08,0-0.12
			c0-0.04,0-0.08,0-0.12h0c0-0.04,0-0.08,0-0.12h0c0-0.04,0-0.08,0-0.12h0c0-0.04,0-0.08,0.01-0.12h0c0-0.04,0-0.08,0.01-0.12h0
			c0-0.04,0.01-0.08,0.01-0.12h0c0-0.04,0.01-0.08,0.01-0.12h0c0-0.04,0.01-0.08,0.01-0.12h0c0-0.04,0.01-0.08,0.01-0.12h0
			c0-0.04,0.01-0.08,0.01-0.12h0c0-0.04,0.01-0.08,0.02-0.12h0c0.01-0.04,0.01-0.08,0.02-0.12h0c0.01-0.04,0.01-0.08,0.02-0.12l0,0
			c0.01-0.04,0.01-0.08,0.02-0.12h0c0.01-0.04,0.01-0.08,0.02-0.11h0c0.01-0.04,0.01-0.08,0.02-0.11h0
			c0.01-0.04,0.02-0.08,0.02-0.11h0c0.01-0.04,0.02-0.08,0.03-0.11h0c0.01-0.04,0.02-0.08,0.03-0.11h0
			c0.01-0.04,0.02-0.07,0.03-0.11h0c0.01-0.04,0.02-0.07,0.03-0.11h0c0.01-0.04,0.02-0.07,0.03-0.11h0
			c0.01-0.04,0.02-0.07,0.03-0.11h0c0.01-0.04,0.02-0.07,0.03-0.11h0c0.01-0.04,0.02-0.07,0.03-0.11h0
			c0.01-0.04,0.02-0.07,0.04-0.11l0,0c0.01-0.04,0.02-0.07,0.04-0.11h0c0.01-0.04,0.03-0.07,0.04-0.11h0
			c0.01-0.04,0.03-0.07,0.04-0.11h0c0.01-0.04,0.03-0.07,0.04-0.11h0c0.01-0.04,0.03-0.07,0.04-0.11h0
			c0.01-0.04,0.03-0.07,0.04-0.11l0,0c0.01-0.03,0.03-0.07,0.04-0.1h0c0.02-0.03,0.03-0.07,0.05-0.1v0c0.02-0.03,0.03-0.07,0.05-0.1
			l0,0c0.02-0.03,0.03-0.07,0.05-0.1h0c0.02-0.03,0.03-0.07,0.05-0.1l0,0c0.02-0.03,0.03-0.07,0.05-0.1
			c0.02-0.03,0.03-0.07,0.05-0.1c0.02-0.03,0.04-0.07,0.05-0.1h0c0.02-0.03,0.04-0.07,0.05-0.1h0c0.02-0.03,0.04-0.07,0.06-0.1
			c0.02-0.03,0.04-0.07,0.06-0.1h0c0.02-0.03,0.04-0.06,0.06-0.1v0c0.02-0.03,0.04-0.06,0.06-0.1v0c0.02-0.03,0.04-0.06,0.06-0.1h0
			c0.02-0.03,0.04-0.06,0.06-0.09c0.02-0.03,0.04-0.06,0.06-0.09v0c0.02-0.03,0.04-0.06,0.06-0.09l0,0
			c0.02-0.03,0.04-0.06,0.06-0.09l0,0c0.02-0.03,0.04-0.06,0.07-0.09h0c0.02-0.03,0.04-0.06,0.07-0.09l0,0
			c0.02-0.03,0.05-0.06,0.07-0.09c0.02-0.03,0.05-0.06,0.07-0.09h0c0.02-0.03,0.05-0.06,0.07-0.09h0c0.02-0.03,0.05-0.06,0.07-0.09
			c0.02-0.03,0.05-0.06,0.07-0.09h0c0.02-0.03,0.05-0.06,0.07-0.09c0.02-0.03,0.05-0.06,0.07-0.08c0.02-0.03,0.05-0.06,0.07-0.08
			c0.03-0.03,0.05-0.06,0.08-0.08c0.03-0.03,0.05-0.05,0.08-0.08c0.03-0.03,0.05-0.05,0.08-0.08c0.03-0.03,0.05-0.05,0.08-0.08
			c0.03-0.03,0.05-0.05,0.08-0.08c0.03-0.03,0.05-0.05,0.08-0.08c0.03-0.03,0.05-0.05,0.08-0.08c0.03-0.03,0.05-0.05,0.08-0.08
			c0.03-0.03,0.06-0.05,0.08-0.07h0c0.03-0.02,0.06-0.05,0.08-0.07h0c0.03-0.02,0.06-0.05,0.09-0.07v0
			c0.03-0.02,0.06-0.05,0.09-0.07h0c0.03-0.02,0.06-0.05,0.09-0.07l0,0c0.03-0.02,0.06-0.05,0.09-0.07l0,0
			c0.03-0.02,0.06-0.05,0.09-0.07c0.03-0.02,0.06-0.05,0.09-0.07v0c0.03-0.02,0.06-0.04,0.09-0.07l0,0
			c0.03-0.02,0.06-0.04,0.09-0.07v0c0.03-0.02,0.06-0.04,0.09-0.06v0c0.03-0.02,0.06-0.04,0.09-0.06c0.03-0.02,0.06-0.04,0.09-0.06
			c0.03-0.02,0.06-0.04,0.09-0.06v0c0.03-0.02,0.06-0.04,0.1-0.06h0c0.03-0.02,0.06-0.04,0.1-0.06c0.03-0.02,0.06-0.04,0.1-0.06v0
			c0.03-0.02,0.06-0.04,0.1-0.06h0c0.03-0.02,0.07-0.04,0.1-0.06l0,0c0.03-0.02,0.07-0.04,0.1-0.05v0c0.03-0.02,0.07-0.04,0.1-0.05
			c0.03-0.02,0.07-0.03,0.1-0.05h0c0.03-0.02,0.07-0.03,0.1-0.05l0,0c0.03-0.02,0.07-0.03,0.1-0.05v0c0.03-0.02,0.07-0.03,0.1-0.05
			l0,0c0.03-0.02,0.07-0.03,0.1-0.05h0c0.03-0.02,0.07-0.03,0.1-0.05v0c0.03-0.02,0.07-0.03,0.1-0.04v0
			c0.03-0.01,0.07-0.03,0.11-0.04v0c0.04-0.01,0.07-0.03,0.11-0.04v0c0.04-0.01,0.07-0.03,0.11-0.04v0
			c0.04-0.01,0.07-0.03,0.11-0.04v0c0.04-0.01,0.07-0.03,0.11-0.04v0c0.04-0.01,0.07-0.03,0.11-0.04v0
			c0.04-0.01,0.07-0.02,0.11-0.04v0c0.04-0.01,0.07-0.02,0.11-0.03v0c0.04-0.01,0.07-0.02,0.11-0.03v0
			c0.04-0.01,0.07-0.02,0.11-0.03v0c0.04-0.01,0.07-0.02,0.11-0.03v0c0.04-0.01,0.07-0.02,0.11-0.03v0
			c0.04-0.01,0.07-0.02,0.11-0.03v0c0.04-0.01,0.08-0.02,0.11-0.03v0c0.04-0.01,0.08-0.02,0.11-0.03v0
			c0.04-0.01,0.08-0.02,0.11-0.02v0c0.04-0.01,0.08-0.02,0.11-0.02v0c0.04-0.01,0.08-0.01,0.11-0.02v0
			c0.04-0.01,0.08-0.01,0.12-0.02l0,0c0.04-0.01,0.08-0.01,0.12-0.02v0c0.04-0.01,0.08-0.01,0.12-0.02v0
			c0.04-0.01,0.08-0.01,0.12-0.02v0c0.04,0,0.08-0.01,0.12-0.01v0c0.04,0,0.08-0.01,0.12-0.01v0c0.04,0,0.08-0.01,0.12-0.01v0
			c0.04,0,0.08-0.01,0.12-0.01v0c0.04,0,0.08-0.01,0.12-0.01v0c0.04,0,0.08,0,0.12-0.01v0c0.04,0,0.08,0,0.12-0.01v0
			c0.04,0,0.08,0,0.12,0v0c0.04,0,0.08,0,0.12,0v0C19.7,14.62,19.74,14.62,19.79,14.62L19.79,14.62L19.79,14.62z M30.53,11.08
			c0.31-0.33,0.83-0.35,1.16-0.04c0.33,0.31,0.35,0.83,0.04,1.16l-3.47,3.74c-0.31,0.33-0.83,0.35-1.16,0.04
			c-0.33-0.31-0.35-0.83-0.04-1.16L30.53,11.08z M11.31,31.79c0.31-0.33,0.83-0.35,1.16-0.04c0.33,0.31,0.35,0.83,0.04,1.16
			l-3.47,3.74C8.73,36.98,8.21,37,7.88,36.69c-0.33-0.31-0.35-0.83-0.04-1.16L11.31,31.79L11.31,31.79z M3.11,24.69
			c-0.45,0-0.82-0.37-0.82-0.82c0-0.45,0.37-0.82,0.82-0.82h5.1c0.45,0,0.82,0.37,0.82,0.82c0,0.45-0.37,0.82-0.82,0.82H3.11
			L3.11,24.69z M31.36,24.69c-0.45,0-0.82-0.37-0.82-0.82c0-0.45,0.37-0.82,0.82-0.82h5.1c0.45,0,0.82,0.37,0.82,0.82
			c0,0.45-0.37,0.82-0.82,0.82H31.36z M7.84,12.2c-0.31-0.33-0.29-0.85,0.04-1.16c0.33-0.31,0.85-0.29,1.16,0.04l3.47,3.74
			c0.31,0.33,0.29,0.85-0.04,1.16c-0.33,0.31-0.85,0.29-1.16-0.04L7.84,12.2L7.84,12.2z M27.06,32.91
			c-0.31-0.33-0.29-0.85,0.04-1.16c0.33-0.31,0.85-0.29,1.16,0.04l3.47,3.74c0.31,0.33,0.29,0.85-0.04,1.16
			c-0.33,0.31-0.85,0.29-1.16-0.04L27.06,32.91z M18.96,7.19c0-0.45,0.37-0.82,0.82-0.82c0.45,0,0.82,0.37,0.82,0.82v5.1
			c0,0.45-0.37,0.82-0.82,0.82c-0.45,0-0.82-0.37-0.82-0.82V7.19L18.96,7.19z M18.96,35.44c0-0.45,0.37-0.82,0.82-0.82
			c0.45,0,0.82,0.37,0.82,0.82v5.1c0,0.45-0.37,0.82-0.82,0.82c-0.45,0-0.82-0.37-0.82-0.82V35.44z M10.45,23.96L10.45,23.96
			L10.45,23.96z M19.79,16.14v15.62c2.16,0,4.11-0.87,5.52-2.29c1.41-1.41,2.29-3.37,2.29-5.52c0-2.16-0.87-4.11-2.29-5.52
			C23.9,17.02,21.94,16.14,19.79,16.14L19.79,16.14z"/>
	</g>
</g>
</svg>
