<?xml version="1.0" encoding="utf-8"?>
<!-- Generator: Adobe Illustrator 26.3.1, SVG Export Plug-In . SVG Version: 6.00 Build 0)  -->
<svg version="1.1" id="Layer_1" xmlns="http://www.w3.org/2000/svg" xmlns:xlink="http://www.w3.org/1999/xlink" x="0px" y="0px"
	 viewBox="0 0 50 50" enable-background="new 0 0 50 50" xml:space="preserve">
<a xlink:href="https://www.facebook.com/arbind.mehta.549/" >
	<g>
		<g>
			<path fill="#020203" d="M42.95,24.74c0-9.77-7.92-17.69-17.69-17.69c-9.77,0-17.69,7.92-17.69,17.69
				c0,8.83,6.47,16.15,14.93,17.48V29.85h-4.49v-5.11h4.49v-3.9c0-4.43,2.64-6.88,6.68-6.88c1.94,0,3.96,0.35,3.96,0.35v4.35h-2.23
				c-2.2,0-2.88,1.36-2.88,2.76v3.32h4.91l-0.78,5.11h-4.12v12.36C36.48,40.88,42.95,33.57,42.95,24.74z"/>
			<path fill="#FFFFFF" d="M32.15,29.85l0.78-5.11h-4.91v-3.32c0-1.4,0.69-2.76,2.88-2.76h2.23V14.3c0,0-2.02-0.35-3.96-0.35
				c-4.04,0-6.68,2.45-6.68,6.88v3.9h-4.49v5.11h4.49v12.36c0.9,0.14,1.82,0.22,2.76,0.22c0.94,0,1.86-0.07,2.76-0.22V29.85H32.15z"
				/>
		</g>
	</g>
</a>
</svg>
