<?xml version="1.0" encoding="utf-8"?>
<!-- Generator: Adobe Illustrator 26.3.1, SVG Export Plug-In . SVG Version: 6.00 Build 0)  -->
<svg version="1.1" id="Layer_1" xmlns="http://www.w3.org/2000/svg" xmlns:xlink="http://www.w3.org/1999/xlink" x="0px" y="0px"
	 viewBox="0 0 50 50" enable-background="new 0 0 50 50" xml:space="preserve">
<g>
	<path d="M24.71,7.73L24.71,7.73c9.67,0,17.5,7.84,17.5,17.5v0c0,9.66-7.84,17.5-17.5,17.5h0c-9.66,0-17.5-7.83-17.5-17.5v0
		C7.21,15.57,15.04,7.73,24.71,7.73z"/>
	<g>
		<path fill-rule="evenodd" clip-rule="evenodd" fill="#FFFFFF" d="M24.71,15.67c-5.41,0-9.8,4.39-9.8,9.8c0,4.22,2.7,7.96,6.7,9.3
			c0.49,0.09,0.67-0.21,0.67-0.47c0-0.26,0-1.01,0-1.82c-2.73,0.59-3.29-1.16-3.29-1.16c-0.44-1.13-1.09-1.44-1.09-1.44
			c-0.89-0.61,0.07-0.59,0.07-0.59c0.63,0.09,1.18,0.46,1.5,1.01c0.87,1.5,2.29,1.07,2.85,0.82c0.04-0.5,0.26-0.96,0.62-1.31
			c-2.18-0.25-4.47-1.09-4.47-4.85c-0.01-0.97,0.35-1.91,1.01-2.63c-0.3-0.84-0.27-1.77,0.09-2.59c0,0,0.82-0.26,2.69,1
			c1.61-0.44,3.3-0.44,4.91,0c1.87-1.27,2.69-1,2.69-1c0.36,0.82,0.4,1.75,0.09,2.59c0.66,0.71,1.02,1.65,1.01,2.63
			c0,3.77-2.29,4.6-4.47,4.84c0.47,0.48,0.71,1.14,0.66,1.82c0,1.31,0,2.36,0,2.69c0,0.26,0.18,0.56,0.68,0.47
			c5.13-1.71,7.91-7.26,6.2-12.4c-1.33-4.01-5.08-6.71-9.31-6.7L24.71,15.67z"/>
		<path fill="#FFFFFF" d="M18.62,29.74c0,0.05-0.09,0.06-0.16,0.03c-0.07-0.03-0.11-0.1-0.09-0.15c0.02-0.05,0.1-0.06,0.17-0.03
			C18.6,29.63,18.64,29.69,18.62,29.74z"/>
		<path fill="#FFFFFF" d="M19.02,30.18c-0.05,0.05-0.14,0.02-0.2-0.05c-0.06-0.05-0.07-0.14-0.03-0.2c0.05-0.05,0.14-0.02,0.2,0.05
			C19.06,30.05,19.07,30.14,19.02,30.18z"/>
		<path fill="#FFFFFF" d="M19.41,30.75c-0.06,0.04-0.16,0-0.22-0.09c-0.06-0.09-0.06-0.19,0-0.23c0.06-0.04,0.16,0,0.22,0.08
			C19.47,30.6,19.47,30.71,19.41,30.75z"/>
		<path fill="#FFFFFF" d="M19.93,31.3c-0.05,0.06-0.17,0.04-0.25-0.04c-0.08-0.08-0.11-0.19-0.05-0.25
			c0.06-0.06,0.17-0.04,0.25,0.04C19.96,31.12,19.99,31.24,19.93,31.3z"/>
		<path fill="#FFFFFF" d="M20.67,31.61c-0.02,0.07-0.14,0.11-0.25,0.08c-0.11-0.03-0.18-0.12-0.16-0.2
			c0.02-0.08,0.14-0.11,0.25-0.08C20.62,31.44,20.69,31.54,20.67,31.61z"/>
		<path fill="#FFFFFF" d="M21.46,31.67c0,0.08-0.09,0.15-0.21,0.15c-0.12,0-0.21-0.06-0.21-0.14c0-0.08,0.09-0.15,0.21-0.15
			C21.37,31.52,21.46,31.59,21.46,31.67L21.46,31.67z"/>
		<path fill="#FFFFFF" d="M22.21,31.54c0,0.08-0.07,0.16-0.19,0.18c-0.12,0.02-0.22-0.02-0.23-0.1c-0.01-0.08,0.07-0.16,0.18-0.19
			C22.09,31.42,22.2,31.47,22.21,31.54L22.21,31.54z"/>
	</g>
</g>
</svg>
