<svg xmlns="http://www.w3.org/2000/svg" xmlns:xlink="http://www.w3.org/1999/xlink" viewBox="0 0 127.6 354.4"><defs><style>.cls-1{isolation:isolate;}.cls-2{fill:url(#linear-gradient);}.cls-3{fill:url(#linear-gradient-2);}.cls-4{fill:#353e49;}.cls-5{fill:url(#linear-gradient-3);}.cls-25,.cls-6{fill:#7e2631;}.cls-7{fill:url(#linear-gradient-4);}.cls-8{fill:#eeae84;}.cls-10,.cls-9{fill:#e09063;}.cls-10,.cls-16,.cls-48,.cls-50{opacity:0.4;}.cls-11{fill:#1b6862;}.cls-12{fill:#165b54;}.cls-13{fill:url(#linear-gradient-5);}.cls-14{fill:url(#linear-gradient-6);}.cls-15{fill:url(#linear-gradient-7);}.cls-16,.cls-37,.cls-40{fill:#ed9489;}.cls-16,.cls-23,.cls-25,.cls-37,.cls-40,.cls-48,.cls-49,.cls-50,.cls-51,.cls-52{mix-blend-mode:multiply;}.cls-17{fill:#3d271a;}.cls-18{fill:#29313a;}.cls-19{fill:url(#linear-gradient-8);}.cls-20{fill:#fc746d;opacity:0.5;}.cls-21{fill:url(#linear-gradient-9);}.cls-22{fill:#fff;}.cls-23{fill:#dd7972;}.cls-23,.cls-40,.cls-49,.cls-51,.cls-52{opacity:0.3;}.cls-24{fill:url(#linear-gradient-10);}.cls-25,.cls-37,.cls-47,.cls-53{opacity:0.2;}.cls-26{fill:#963c4f;}.cls-27{fill:url(#linear-gradient-11);}.cls-28{fill:#f6d4af;}.cls-29{fill:url(#linear-gradient-12);}.cls-30{fill:url(#linear-gradient-13);}.cls-31{fill:url(#linear-gradient-14);}.cls-32{fill:url(#linear-gradient-15);}.cls-33{fill:#f6cea1;}.cls-34{fill:url(#linear-gradient-16);}.cls-35{fill:url(#linear-gradient-17);}.cls-36{fill:url(#linear-gradient-18);}.cls-38{fill:#514743;}.cls-39{fill:#3a312e;}.cls-41{fill:url(#linear-gradient-19);}.cls-42{fill:url(#linear-gradient-20);}.cls-43{fill:url(#linear-gradient-21);}.cls-44{fill:url(#linear-gradient-22);}.cls-45{fill:#d8b18b;}.cls-46{fill:#bf9775;}.cls-47{fill:#e8bc91;}.cls-48{fill:url(#linear-gradient-23);}.cls-49{fill:url(#linear-gradient-24);}.cls-50{fill:url(#linear-gradient-25);}.cls-51{fill:url(#linear-gradient-26);}.cls-52,.cls-53{fill:#7d431b;}.cls-53{mix-blend-mode:screen;}.cls-54{fill:#c57d6d;}.cls-55{fill:#d85023;}.cls-56{fill:#934747;}</style><linearGradient id="linear-gradient" x1="116.19" y1="322.22" x2="110.29" y2="301.99" gradientTransform="translate(-29.6 21.3) rotate(-1)" gradientUnits="userSpaceOnUse"><stop offset="0" stop-color="#f9c3ac"/><stop offset="1" stop-color="#f9a193"/></linearGradient><linearGradient id="linear-gradient-2" x1="113.15" y1="322.72" x2="107.43" y2="303.14" xlink:href="#linear-gradient"/><linearGradient id="linear-gradient-3" x1="36.98" y1="334.13" x2="31.48" y2="315.29" gradientTransform="translate(52.1 10.2) rotate(5.4)" xlink:href="#linear-gradient"/><linearGradient id="linear-gradient-4" x1="35.25" y1="334.63" x2="29.76" y2="315.8" gradientTransform="translate(52.1 10.2) rotate(5.4)" xlink:href="#linear-gradient"/><linearGradient id="linear-gradient-5" x1="60.48" y1="70.66" x2="61.2" y2="56.14" gradientTransform="translate(2.8 12) rotate(1.3)" xlink:href="#linear-gradient"/><linearGradient id="linear-gradient-6" x1="59.75" y1="70.62" x2="60.47" y2="56.1" gradientTransform="translate(2.8 12) rotate(1.3)" xlink:href="#linear-gradient"/><linearGradient id="linear-gradient-7" x1="27.41" y1="25.09" x2="82.25" y2="-11.41" gradientTransform="translate(2.8 12) rotate(1.3)" gradientUnits="userSpaceOnUse"><stop offset="0.01" stop-color="#3d271a"/><stop offset="1" stop-color="#512e1f"/></linearGradient><linearGradient id="linear-gradient-8" x1="76.49" y1="17.19" x2="43.92" y2="41.39" gradientTransform="translate(2.8 12) rotate(1.3)" xlink:href="#linear-gradient"/><linearGradient id="linear-gradient-9" x1="124.09" y1="133.57" x2="109.67" y2="89.62" gradientTransform="translate(2.8 12) rotate(1.3)" xlink:href="#linear-gradient"/><linearGradient id="linear-gradient-10" x1="31" y1="104.12" x2="15.53" y2="156.34" gradientTransform="translate(2.8 12) rotate(1.3)" xlink:href="#linear-gradient"/><linearGradient id="linear-gradient-11" x1="67.04" y1="230.3" x2="84.11" y2="52.53" gradientTransform="translate(2.8 12) rotate(1.3)" gradientUnits="userSpaceOnUse"><stop offset="0" stop-color="#f6cea1"/><stop offset="1" stop-color="#fce1be"/></linearGradient><linearGradient id="linear-gradient-12" x1="23.72" y1="85.75" x2="36.89" y2="85.75" gradientTransform="translate(2.8 12) rotate(1.3)" xlink:href="#linear-gradient"/><linearGradient id="linear-gradient-13" x1="22.41" y1="89.61" x2="36.05" y2="89.61" gradientTransform="translate(2.8 12) rotate(1.3)" xlink:href="#linear-gradient"/><linearGradient id="linear-gradient-14" x1="22.29" y1="93.98" x2="35.36" y2="93.98" gradientTransform="translate(2.8 12) rotate(1.3)" xlink:href="#linear-gradient"/><linearGradient id="linear-gradient-15" x1="22.99" y1="100.73" x2="9.97" y2="144.68" gradientTransform="translate(2.8 12) rotate(1.3)" xlink:href="#linear-gradient"/><linearGradient id="linear-gradient-16" x1="27.43" y1="102.37" x2="13.59" y2="149.07" gradientTransform="translate(2.8 12) rotate(1.3)" xlink:href="#linear-gradient"/><linearGradient id="linear-gradient-17" x1="22.53" y1="97.51" x2="35.3" y2="97.51" gradientTransform="translate(2.8 12) rotate(1.3)" xlink:href="#linear-gradient"/><linearGradient id="linear-gradient-18" x1="124.4" y1="133.48" x2="109.98" y2="89.53" gradientTransform="translate(2.8 12) rotate(1.3)" xlink:href="#linear-gradient"/><linearGradient id="linear-gradient-19" x1="104.89" y1="69.02" x2="102.14" y2="78.32" gradientTransform="translate(2.8 12) rotate(1.3)" xlink:href="#linear-gradient"/><linearGradient id="linear-gradient-20" x1="106.92" y1="71.62" x2="103.87" y2="81.89" gradientTransform="translate(2.8 12) rotate(1.3)" xlink:href="#linear-gradient"/><linearGradient id="linear-gradient-21" x1="108.64" y1="75.37" x2="105.77" y2="85.08" gradientTransform="translate(2.8 12) rotate(1.3)" xlink:href="#linear-gradient"/><linearGradient id="linear-gradient-22" x1="110.6" y1="75.89" x2="107.35" y2="86.85" gradientTransform="translate(2.8 12) rotate(1.3)" xlink:href="#linear-gradient"/><linearGradient id="linear-gradient-23" x1="29.88" y1="0.59" x2="31.8" y2="-0.69" xlink:href="#linear-gradient-7"/><linearGradient id="linear-gradient-24" x1="25.41" y1="25.48" x2="40.03" y2="15.75" xlink:href="#linear-gradient-7"/><linearGradient id="linear-gradient-25" x1="46.4" y1="24.88" x2="46.41" y2="24.87" xlink:href="#linear-gradient-7"/><linearGradient id="linear-gradient-26" x1="74.44" y1="13.15" x2="87.95" y2="4.16" xlink:href="#linear-gradient-7"/></defs><g class="cls-1"><g id="Layer_1" data-name="Layer 1"><path class="cls-2" d="M90.6,316.1l-.3,2.2-1.7,12.1a18.3,18.3,0,0,1-4.2.8H82.9a143.3,143.3,0,0,1-2.5-15.7C83.3,316.9,88.9,316.5,90.6,316.1Z"/><path class="cls-3" d="M83.3,332c2.9,2.1,5.3-1.6,5.3-1.6a18.9,18.9,0,0,1-5.6.9h-.1C83.1,331.7,83.2,332,83.3,332Z"/><path class="cls-4" d="M109.1,341.5s-1.2.6-7.1.1-17.2-3.3-18-4.8a9.8,9.8,0,0,1-.6-1.4c-.5-1.7-.8-4-.5-4.1H83a18.9,18.9,0,0,0,5.6-.9s6.8,1.5,14.2,4c4.3,1.5,5.7,3.6,6.2,5.2A4.1,4.1,0,0,1,109.1,341.5Z"/><path class="cls-5" d="M58.3,320.9l-.4,3.2-1.3,9.6a6.2,6.2,0,0,1-5.1.2,4.9,4.9,0,0,1-1.4-1.1h-.3L47,320a10.6,10.6,0,0,0,3,1C52.6,321.7,56.1,322.2,58.3,320.9Z"/><path class="cls-6" d="M67.6,238.6l-9.1,80.3h0l-.2,2c-1.9,1.1-4.8.9-7.3.3l-1-.2a25.4,25.4,0,0,1-3.6-1.2s-3.8-23.5-6-36.2-.8-28.4.7-33A119.2,119.2,0,0,0,44,237.9l23.8-1.1Z"/><path class="cls-6" d="M67.8,236.8l-9.3,82.1h0L68,236.8Z"/><path class="cls-7" d="M50.1,332.8h-.3v.3a5.2,5.2,0,0,0,3.7,2,3.7,3.7,0,0,0,3-1.3S52.7,335.8,50.1,332.8Z"/><path class="cls-4" d="M53.6,354.3a8.9,8.9,0,0,1-6.9-3.6,10.6,10.6,0,0,1,0-2.6c.1-1.7.5-4.1.9-6.7s1.6-8.2,2.2-8.7h.3c2.6,3,6.5.9,6.5.9s1.9,10.6,2.9,15.6a19.3,19.3,0,0,0,.5,2.6C60.3,353.3,57.5,354.6,53.6,354.3Z"/><path class="cls-8" d="M31.3,211.8,18.9,217,1.4,224.3,0,223.5s3.7-45.4,6.1-63.2a8.8,8.8,0,0,1,.2-1.7c3-21.7,17.1-62.1,18.4-65.6l1.1.7,2.6,1.8C29,110.8,30.4,172.9,31.3,211.8Z"/><path class="cls-9" d="M25.8,93.7c-1.3,4-7,20-10.7,32.7a273.3,273.3,0,0,0-9.3,47C4,188.7,2.1,215.8,1.4,224.3c0,1.3.1-.3,0,0L0,223.5S4,175,6.3,158.6c3-21.7,17.1-62.1,18.4-65.6Z"/><path class="cls-10" d="M31.3,211.8,18.9,217c-.7-6.2-2-14.4-4.1-20-2.9-8.1-7-25.3-8.7-36.7a8.8,8.8,0,0,1,.2-1.7c3-21.7,17.1-62.1,18.4-65.6l1.1.7,2.6,1.8C29,110.8,30.4,172.9,31.3,211.8Z"/><path class="cls-11" d="M103.5,88.6C84,90.4,30.9,98.4,30.9,98.4a10.5,10.5,0,0,1,.3,3c.1,1.8.2,4.5.5,9.4l-.5.7-.9,1.6-.5-.2a11.4,11.4,0,0,1-5.5-4.7c.4.9.4,7.9,1.3,10v.3l-7,14.4c-2.4,5.1-7.2,16.7-8.2,20.3.2-2.7.5-6.7,1.2-11a98.7,98.7,0,0,1,2.7-12.9c1.5-5.2,5-14.8,8.3-23.4,1.7-4.5,3.4-8.7,4.8-11.8s1.6-3.5,2.1-4.5l.2-.4a14.1,14.1,0,0,1,6.5-5.5c1.7-.8,3.6-1.5,5.5-2.2h.2c3.7-1.5,8.9-4.1,11.1-5.2l.9-.4a29.1,29.1,0,0,1,17.7-2.7l1.5.2,8.8,1.4c2.8.4,5.5.9,7.8,1.4a23,23,0,0,1,4.7,1.4,23.3,23.3,0,0,1,3.8,3.9,63,63,0,0,1,5.4,6.7.9.9,0,0,1,.3.5Z"/><path class="cls-12" d="M63.6,81.5c-7.7.9-10.4-3.2-10.7-5.3l.9-.4a29.1,29.1,0,0,1,17.7-2.7l1.5.2C74.9,76.8,72.9,80.4,63.6,81.5Z"/><path class="cls-13" d="M62.2,79.9c-7.9.8-8.4-4.1-8.4-4.1a2.3,2.3,0,0,0,.6-.6,11.6,11.6,0,0,0,.9-1.9c.9-2.1-2.7-10.2-2.7-10.2,4.2,2.1,12.1,4.6,15.9,4.6a5.8,5.8,0,0,0,1.9-.2,8.5,8.5,0,0,0,1.7-.6l-.7,4.9a3.2,3.2,0,0,0,.1,1.3,5.3,5.3,0,0,0,.9,1.6C74.3,77.1,70.8,79.2,62.2,79.9Z"/><path class="cls-11" d="M117,149.7c.3.6-5.7-6.5-6.7-11.9L107,107.5l.5.9S112.9,140.8,117,149.7Z"/><path class="cls-14" d="M52.6,63.1c4.2,2.1,12.1,4.6,15.9,4.6a8.6,8.6,0,0,0,3.6-.8s-10.8-.6-19.5-3.8Z"/><path class="cls-15" d="M87.2,27.9c-4,2.1-9.3,2.3-9.6,1h0a3.6,3.6,0,0,0-.4-1.1c-1.4-4-1.9-5-2-5.3h-.1v.2l-.3.3h-.2l-1.2,1.1h0a14.3,14.3,0,0,1-7.4,2.7,21,21,0,0,1-3.6.1,41.8,41.8,0,0,1-15.6-4.6c1.1,3.2,3,6.6.7,12.7l-.9,2.3c-1.9,5.2-3.3,9.6-3.3,9.6s-.7-1.3-1.7-2.8-.1-.1-.1-.2c-1.3-1.7-3-3.5-5-3.7h-.6c-3.5.3-4.9,1.7-4,4.4l-.4-.5c-.1-.1-.1-.2-.2-.2a18.8,18.8,0,0,1-4.4-6.9,6.5,6.5,0,0,1-.4-1.3c-.6-2.8-.3-5.7.5-9.3s2.8-7.9,4.9-9.9a8.4,8.4,0,0,1,3.3-2.1h.2l-4-3.2.8-.4c2.8-1.1,4.3,1.8,4.3,1.8C34.7,2.3,52.2-1.5,61.7.5L67.1,2A28.4,28.4,0,0,1,76,6.6a16.3,16.3,0,0,1,5.5,8.6,3.6,3.6,0,0,0,.2,1,.3.3,0,0,0,.1.2c.3,1.1.6,1.9.8,2.6v.2l1,1.8h.1a2.8,2.8,0,0,0,1.7,1.1,2.2,2.2,0,0,0,2.7-1.6,1.4,1.4,0,0,0,.2-.6,6,6,0,0,0-.1-2.3h0C92.6,20.9,91.1,25.9,87.2,27.9Z"/><path class="cls-16" d="M82.1,319.9l2.3,11.3H82.9a143.3,143.3,0,0,1-2.5-15.7c2.9,1.3,8.5.9,10.2.5l-.3,2.2A14.2,14.2,0,0,1,82.1,319.9Z"/><path class="cls-17" d="M75.1,22.5s2.1,5.1,2.5,6.4a3.6,3.6,0,0,0-.4-1.1C75.4,22.7,75.1,22.5,75.1,22.5Z"/><path class="cls-18" d="M109.1,341.5s-1.2.6-7.1.1-17.2-3.3-18-4.8a9.8,9.8,0,0,1-.6-1.4c3.6,1.5,16.3,4.7,25.6,4.2A4.1,4.1,0,0,1,109.1,341.5Z"/><path class="cls-19" d="M78.7,59.1c-.1.2-.2.3-.2.5-1.4,2.8-3.5,5.8-6.4,7.3a8.6,8.6,0,0,1-3.6.8c-3.8,0-11.7-2.5-15.9-4.6a7,7,0,0,1-2.2-1.3c-2.7-2.1-7.2-9.5-7.2-9.5h-.6c-3,.2-8.4-3.2-10.2-6.5a5.4,5.4,0,0,1-.5-1.1h-.1c-.9-2.7.5-4.1,4-4.4S43.2,47,43.2,47s1.9-5.9,4.2-11.9.4-9.5-.7-12.7A41.8,41.8,0,0,0,62.3,27c7.2.5,11.1-2.7,12.4-4l.4-.5s2.1,5.1,2.5,6.4a15.3,15.3,0,0,1,.4,4.2,43.1,43.1,0,0,1-.8,6.5c-.1.2,0,.3.2.6a19,19,0,0,0,2.1,2.2,17.8,17.8,0,0,1,2.9,3.2C84.1,48.3,80.6,55.1,78.7,59.1Z"/><path class="cls-20" d="M48.3,42.8c-.8,1.3,4.3,4.8,5.1,3.3S49.2,41.3,48.3,42.8Z"/><path class="cls-21" d="M125.4,147.7c-.6,1.2-1.1,2.3-1.6,3.1-1.9,3.4-4.6,1.1-6.1-.2-4.4-3.7-10.2-42.2-10.2-42.2s-2-5.2-2.2-5.8a5.6,5.6,0,0,0,1.5-.4,11.4,11.4,0,0,0,3.3-2.8l1.7-2.2a18.2,18.2,0,0,0,1.4-1.9c.5,2.6,0,11.2,0,11.2s10.8,17,13.4,25C128.6,137.6,127.1,143.6,125.4,147.7Z"/><path class="cls-16" d="M125.4,147.7c-.6,1.2-1.1,2.3-1.6,3.1-1.9,3.4-4.6,1.1-6.1-.2-4.4-3.7-10.2-42.2-10.2-42.2s-2-5.2-2.2-5.8a5.6,5.6,0,0,0,1.5-.4c.4,1.9,1.4,5,3.4,5.5,0,0,2,19.9,5.9,27.8C118.6,140.6,121.4,148,125.4,147.7Z"/><path class="cls-22" d="M52.9,39.5c-.8-.3.8-2.3,3-3.5s5,2.3,5.6,3S56.5,41.3,52.9,39.5Z"/><path class="cls-22" d="M69.4,38.6s.7-2.6,2.9-3.1,5.1,2.1,5.1,2.1S72.8,40.4,69.4,38.6Z"/><path class="cls-12" d="M103.5,88.6C84,90.4,30.9,98.4,30.9,98.4a10.5,10.5,0,0,1,.3,3l-4.6-.4,2.8-11.4c.5-.8,11.3-1.4,12-2.4s-2.5-3.1-5.3-3.5c1.7-.8,3.6-1.5,5.5-2.2a6.1,6.1,0,0,1,3.1,5.6l43.4-5.7a27,27,0,0,0-6.3-6.7c2.8.4,5.5.9,7.8,1.4a33.2,33.2,0,0,1,2.8,6.3l4.8-2.1c2.1,2.4,5.4,6.4,6.3,7.8Z"/><path class="cls-6" d="M100.3,233.5s-.1,1.4-.4,4c-1.8,15.9-8.3,73.3-9.3,78.7,0,0-5.6,1.4-8.5.9-1-.1-1.7-.5-1.8-1.1-.9-5-15.5-71.3-1.7-78.9Z"/><path class="cls-23" d="M35.6,43.7a6.2,6.2,0,0,1,5.2,2.4c1.8,2.3,2,3.6,1.4,3.9s-4.6-.5-3.7-2.9l.5-.9s-2.3-1.8-3.4-1.9S35,43.7,35.6,43.7Z"/><path class="cls-12" d="M31.2,111.5l-.9,1.6-.5-.2a11.4,11.4,0,0,1-5.5-4.7c.4.9.4,7.9,1.3,10v.3l-7,14.4c-2.4,5.1-7.2,16.7-8.2,20.3.2-2.7.5-6.7,1.2-11,3.5-8.3,8.4-17.6,9.3-19.7s1.6-12.8,1.7-16.6v-1.4L27.3,94h0l2.3,8.5Z"/><path class="cls-16" d="M58.3,320.9l-.4,3.2c-1.3.6-4.9.6-8.1-.8l1.7,10.6a4.9,4.9,0,0,1-1.4-1.1h-.3L47,320a10.6,10.6,0,0,0,3,1C52.6,321.7,56.1,322.2,58.3,320.9Z"/><path class="cls-24" d="M31.9,121.7c.4,5.7-1.5,25.4-3.5,35s-7.6,11.7-9.9,12.1h-.8c-2-.1-3.7-1.9-5.1-4.6a29.6,29.6,0,0,1-2.5-7.8h0c0-.5.1-1.6.2-3.2,1-3.6,5.8-15.2,8.2-20.3l7-14.4v-.3c-.9-2.1-.9-9.1-1.3-10a10,10,0,0,0,2.6,3,10.5,10.5,0,0,0,2.9,1.7l.5.2,1.6.6q.1,3.5.3,7.2Z"/><path class="cls-16" d="M16.2,167l1.5,1.9c-2-.1-3.7-1.9-5.1-4.6a29.6,29.6,0,0,1-2.5-7.8h0c0-.5.1-1.6.2-3.2,1-3.6,5.8-15.2,8.2-20.3l7-14.4v-.3c-.9-2.1-.9-9.1-1.3-10a10,10,0,0,0,2.6,3c-.1,2.4.1,6.9,2,9.1A85.2,85.2,0,0,0,17.7,144C13.8,157.4,13.7,163.6,16.2,167Z"/><path class="cls-25" d="M67.8,236.8l-.2,1.8c-1.5,1.2-3.6,2.2-7.5,2.7s-11.8-1.6-11.8-1.6-5.4,21.6-3,42.3,4.9,36.1,4.9,36.1l.8,3.1-1-.2a25.4,25.4,0,0,1-3.6-1.2s-3.8-23.5-6-36.2-.8-28.4.7-33A119.2,119.2,0,0,0,44,237.9Z"/><path class="cls-20" d="M79.5,42.4c-.7,1.1-2.2,1.8-3.1,1s-.2-2.5,1-3.2A19,19,0,0,0,79.5,42.4Z"/><path class="cls-26" d="M67.8,239.2c-.5,4-4.5,41.6-5.5,49s-4,32.7-4,32.7,1.8-26.4,2.7-35.5C62.3,271.3,67.8,239.2,67.8,239.2Z"/><path class="cls-25" d="M82.1,243.2c-4.4,5.9-1.8,49,0,73.9-1-.1-1.7-.5-1.8-1.1-.9-5-15.5-71.3-1.7-78.9l21.7-3.6s-.1,1.4-.4,4C94.6,238.6,84.8,239.6,82.1,243.2Z"/><path class="cls-27" d="M118,207.1c-.1-1.3-.4-3.4-.7-6.1-1.8-16.6-5.6-56.6-6.9-68.2,0-.3-.1-.6-.1-.9-1.5-14.1-3.8-49.2-3.8-49.2s-4.9.8-6.5.9l-8.6.8H90.3C76.8,86,57.8,88.3,44.4,90H43.3L28.2,92a27.3,27.3,0,0,1,.2,3.5c.6,15.3,2,77.4,2.9,116.3.4,18.9.7,32.3.7,32.3s20.8-2,34.3-3.8l1.7-.2c6.6-.9,19.5-2.9,30.9-4.7l21.6-3.5S119.3,216.1,118,207.1ZM44.1,94.3a1.3,1.3,0,0,1-1.3-1.4,1.4,1.4,0,0,1,.7-1.2h1.1a1.4,1.4,0,0,1,.9,1.3A1.5,1.5,0,0,1,44.1,94.3Zm46.4-8h1a1.2,1.2,0,0,1,.7,1.1A1.2,1.2,0,0,1,91,88.6a1.2,1.2,0,0,1-1.2-1.2A1.2,1.2,0,0,1,90.5,86.3Z"/><path class="cls-18" d="M53.6,354.3a8.9,8.9,0,0,1-6.9-3.6,10.6,10.6,0,0,1,0-2.6c.9,2,2.7,4.5,5.7,4.8s5.5-2,7.1-3.6a19.3,19.3,0,0,0,.5,2.6C60.3,353.3,57.5,354.6,53.6,354.3Z"/><path class="cls-28" d="M32,244.1l-3.6-1.9L26.5,90.7,28.2,92s1.3,26,1.3,31.2.7,40.6.9,46.3,1.4,35.8,1.4,42.2S32,244.1,32,244.1Z"/><path class="cls-29" d="M37.5,104.5c-.9,1.3-2,.7-7.4-3.8s-5.4-6.3-5.4-7.7.1-.7.3-.8,2.7,0,5.2,2,7.2,7.8,7.4,9.8A.4.4,0,0,1,37.5,104.5Z"/><path class="cls-30" d="M36.7,107.1v.2c-.4,1.3-4.4-.1-8.1-2.7s-5.6-5.5-5.3-7.1l.3-.5c1.1-1.3,3.8.8,7.1,3.9S36.7,105.8,36.7,107.1Z"/><path class="cls-31" d="M35.9,111.3c-.4,1.3-4.5-.7-8-3.1s-4.5-3.9-4.8-5.3a1.1,1.1,0,0,1,.1-.8c.9-1.6,2.6-.3,6.4,2.5s5.9,4.7,6.3,6.1A.6.6,0,0,1,35.9,111.3Z"/><path class="cls-11" d="M10.1,156.6h0Z"/><path class="cls-32" d="M10.1,153.7a6.1,6.1,0,0,0,0,2.7c0-.5.1-1.6.2-3.2Z"/><path class="cls-33" d="M33.9,114.1h0a5.8,5.8,0,0,1-2-.4q.1,3.5.3,7.2C33,119.4,34.4,115.9,33.9,114.1Z"/><path class="cls-34" d="M24.3,108.2h0a11.8,11.8,0,0,0,5.5,5,9,9,0,0,0,4.1,1.2C33.3,111.8,24.3,108.2,24.3,108.2Z"/><path class="cls-35" d="M34.6,113.3h0c-.1.7-.4,1.1-1.1,1.1a9,9,0,0,1-4.1-1.2,11.8,11.8,0,0,1-5.5-5,1.4,1.4,0,0,1-.2-.6,2,2,0,0,1,0-1.1c.9-2.2,3.4.7,5.4,2.2S34.7,111.8,34.6,113.3Z"/><path class="cls-36" d="M110.1,99.4a40.2,40.2,0,0,0,3.1-4.1l-7.9,7.3h0C106.4,102.6,108.3,101.5,110.1,99.4Z"/><path class="cls-37" d="M61.5,39s-2-5-5.4-4.7-3.4,5-3.4,5a5,5,0,0,0,4.6,1.8A6.6,6.6,0,0,0,61.5,39Z"/><path class="cls-37" d="M69.4,38.6s.6-4.5,3.9-5.2,4.1,4.2,4.1,4.2-.3,1.6-3.4,2.2A4.5,4.5,0,0,1,69.4,38.6Z"/><path class="cls-17" d="M71.1,31.7c1.1-.1,4.9-.5,6.9,2.2,0,0,.1-3.6-3.1-3.8S71.1,31.7,71.1,31.7Z"/><path class="cls-38" d="M59.3,38a2,2,0,0,1-2,2,2.1,2.1,0,0,1,0-4.2A2.1,2.1,0,0,1,59.3,38Z"/><path class="cls-17" d="M51.3,36s5.1-4.4,9.7-3.3c0,0-3.3-2.8-6.3-1.5S51.3,36,51.3,36Z"/><path class="cls-38" d="M75.6,37a1.9,1.9,0,0,1-1.7,2,1.9,1.9,0,0,1-1.6-2A1.9,1.9,0,0,1,74,35,1.9,1.9,0,0,1,75.6,37Z"/><path class="cls-39" d="M52.7,39.3s1.3-2.8,3.8-3.1,5,2.8,5,2.8-2.3-4.4-5.4-3.9A4.1,4.1,0,0,0,52.7,39.3Z"/><path class="cls-39" d="M69.4,38.6s1.3-3,3.6-3,4.4,2,4.4,2-1.4-3.4-4-3.4S69.4,38.6,69.4,38.6Z"/><path class="cls-40" d="M78.7,59.1c-.1.2-.2.3-.2.5-1.4,2.8-3.5,5.8-6.4,7.3a8.6,8.6,0,0,1-3.6.8c-3.8,0-11.7-2.5-15.9-4.6a7,7,0,0,1-2.2-1.3c-2.7-2.1-7.2-9.5-7.2-9.5s.3,0,0,0a4.2,4.2,0,0,0,.1-2.6c-.9-1.5-6.2-10.3-9.9-6.6l-1.5,1.7h-.1c-.9-2.7.5-4.1,4-4.4S43.2,47,43.2,47s1.9-5.9,4.2-11.9.4-9.5-.7-12.7A41.8,41.8,0,0,0,62.3,27c7.2.5,11.1-2.7,12.4-4l.4-.5s2.1,5.1,2.5,6.4a15.3,15.3,0,0,1,.4,4.2c-1-3-2.2-6.7-3-7.2s-3.4,4.9-13.3,3.4-11.8-2.9-11.8-2.9c.5,1.7.3,9.1-3.2,16.6l-.8,1.7c-1.1,3.9-.8,6.8.8,9.4a29.4,29.4,0,0,0,9.7,8.6c3.6,1.8,10.2,3.4,15.1,2.6S76.7,61.8,78.7,59.1Z"/><path class="cls-40" d="M67.5,62s2.6-.8,3.3.1a1.2,1.2,0,0,0-1.2-1.3A2.8,2.8,0,0,0,67.5,62Z"/><path class="cls-16" d="M71.5,73.1c-3.6.1-11.7.6-17.1,2.1a11.6,11.6,0,0,0,.9-1.9c.9-2.1-2.7-10.2-2.7-10.2,4.2,2.1,12.1,4.6,15.9,4.6a5.8,5.8,0,0,0,1.9-.2,8.5,8.5,0,0,0,1.7-.6l-.7,4.9A3.2,3.2,0,0,0,71.5,73.1Z"/><path class="cls-16" d="M34.6,113.3h0c-.1.7-3.3.8-5.2-.1a11.8,11.8,0,0,1-5.5-5,1.4,1.4,0,0,1-.2-.6c.7,1.3,3.7,3.8,6.1,4.9A12.4,12.4,0,0,0,34.6,113.3Z"/><path class="cls-16" d="M35.9,111.3c-.4,1.3-4.5-.7-8-3.1s-4.5-3.9-4.8-5.3a24.7,24.7,0,0,0,5.7,4.8c3.3,2.1,5.9,3.5,7.1,3A.6.6,0,0,1,35.9,111.3Z"/><path class="cls-16" d="M36.7,107.1v.2c-.4,1.3-4.4-.1-8.1-2.7s-5.6-5.5-5.3-7.1a18.6,18.6,0,0,0,4.4,5C30.1,104.4,35,106.9,36.7,107.1Z"/><path class="cls-16" d="M37.5,104.5c-.9,1.3-2,.7-7.4-3.8s-5.4-6.3-5.4-7.7a40.4,40.4,0,0,0,5.7,6c2.7,2.3,5.5,4.6,7.2,5A.4.4,0,0,1,37.5,104.5Z"/><path class="cls-16" d="M23,106.6l-1.1-1,1.1.8Z"/><path class="cls-41" d="M104.6,91.6c-2.6,2.6-4.3,2.6-4.9,1.5v-.2c-.9-1.9,8.2-10.7,9.5-9.7l.3.3C110.1,84.9,107.2,89.2,104.6,91.6Z"/><path class="cls-16" d="M104.6,91.6c-2.6,2.6-4.3,2.6-4.9,1.5a14,14,0,0,0,4.2-2.8,78.2,78.2,0,0,0,5.5-6.8C110.1,84.9,107.2,89.2,104.6,91.6Z"/><path class="cls-42" d="M107.5,94c-2.3,2.7-5.1,3.9-6,3.3s-.2-.1-.2-.2c-1.6-3,8.5-12.6,9.8-11.4l.3.5C111.9,87.8,109.9,91.3,107.5,94Z"/><path class="cls-16" d="M107.5,94c-2.3,2.7-5.1,3.9-6,3.3a27.4,27.4,0,0,0,5.6-5.1,50.3,50.3,0,0,0,4.3-6C111.9,87.8,109.9,91.3,107.5,94Z"/><path class="cls-43" d="M109.1,96.9c-2.4,2.9-5.5,4.1-6,3.4l-.2-.3c-.5-1.3,1-3.3,2.9-5.4s5.8-6.3,7.1-4.8l.3.3C113.8,91.6,111.3,94.3,109.1,96.9Z"/><path class="cls-16" d="M109.1,96.9c-2.4,2.9-5.5,4.1-6,3.4l-.2-.3a15.2,15.2,0,0,0,5.1-4c1.8-2,4.2-4.3,5.2-5.9C113.8,91.6,111.3,94.3,109.1,96.9Z"/><path class="cls-44" d="M113.4,95.3a40.2,40.2,0,0,1-3.1,4.1c-1.8,2.1-3.7,3.2-4.8,3.2l-.6-.2h-.1c-1-1.6,7.1-10.8,8.6-9.5s.1.1.2.2S113.8,94.4,113.4,95.3Z"/><path class="cls-16" d="M113.4,95.3a40.2,40.2,0,0,1-3.1,4.1c-1.8,2.1-3.7,3.2-4.8,3.2l-.6-.2a13.4,13.4,0,0,0,4.7-3.8c1.2-1.5,2.9-4,4-5.6C114,93.6,113.8,94.4,113.4,95.3Z"/><polygon class="cls-45" points="26.5 90.7 105.1 82.2 106.5 82.9 28.2 92 26.5 90.7"/><path class="cls-46" d="M44.6,91.7H43.5a11.5,11.5,0,0,0-.2-1.6c-.6-3.1-2.1-7.6-6.3-6.8l-1.5.6a4.7,4.7,0,0,1,3.8-2c2.3,0,4.4,2.8,5.1,8.1C44.5,90.5,44.5,91.1,44.6,91.7Z"/><path class="cls-46" d="M91.5,86.3h-1c0-.4-.1-1-.2-1.8-.4-3.3-2.2-8.7-8.7-9.8,0,0,9.1-2,9.8,9.7A12.1,12.1,0,0,1,91.5,86.3Z"/><path class="cls-47" d="M117.3,201,98.9,235.4c-11.4,1.8-24.3,3.8-30.9,4.7l-1.7.2,44-108.4c0,.3.1.6.1.9C111.7,144.4,115.5,184.4,117.3,201Z"/><path class="cls-48" d="M35.4,14.4l-4.1-3.2.8-.4C33.8,11.7,36.2,13.6,35.4,14.4Z"/><path class="cls-49" d="M46.5,37.4c-1.9,5.2-3.3,9.6-3.3,9.6s-3.4-7.1-7.4-6.7-4.9,1.7-4,4.4c-6.2-6.4-6.5-11-4.9-18.2,1-4.7,2.8-7.9,4.9-9.9-.2,3.6,1.8,10.2,4.7,14.5S43.6,36.6,46.5,37.4Z"/><path class="cls-50" d="M48.7,37.9Z"/><path class="cls-51" d="M87.2,27.9c-4,2.1-9.3,2.3-9.6,1h0a3.6,3.6,0,0,0-.4-1.1c-1.8-5.1-2.1-5.3-2.1-5.3l-.4.5h-.2c-.4-1.6-.6-2.5-.2-2s6,5.1,11.1,4.8,3.9-5.4,2.9-8.2C92.6,20.9,91.1,25.9,87.2,27.9Z"/><path class="cls-52" d="M88.4,20a1.4,1.4,0,0,1-.2.6c.1,1.9-.3,3.8-2,4.7a6.4,6.4,0,0,1-5.4-.2c-1.6-.8-2.5-2.4-3.4-3.8a10,10,0,0,0,6.4-.2h-.1l-.9.3a10.6,10.6,0,0,1-5-.2h-.5a39.3,39.3,0,0,1-9.9-4.2c-3.9-2-7.6-4.1-11.8-5.3A19.3,19.3,0,0,0,42,12a6.4,6.4,0,0,0-3.5,3h0a1.8,1.8,0,0,0-.8-.7,9.8,9.8,0,0,1,1.3-5,10.7,10.7,0,0,1,3.3-3.4,19.5,19.5,0,0,1,10-2.7A26.6,26.6,0,0,1,62.4,4.6c5,1.8,7.9,6.1,11.1,10,2,2.3,4.9,4.5,8.1,4.7h1.1V19a6.6,6.6,0,0,1-2.4-.1,11.6,11.6,0,0,1-4.5-2.4,35,35,0,0,1-4.4-5,24.7,24.7,0,0,0-5.1-5.1,17.3,17.3,0,0,0-5.7-2.6A28.2,28.2,0,0,0,54,3c1.9-1.2,4.3-1.2,6.4-1.1a19.6,19.6,0,0,1,6.8,1.3,17.1,17.1,0,0,1,6.3,4.7c1.8,2.1,2.9,4.7,4.6,6.9a4.4,4.4,0,0,0,3.7,1.6h0a.3.3,0,0,1-.1-.2,3.9,3.9,0,0,1-2.1-.4,6.4,6.4,0,0,1-2.5-2.9c-.8-1.1-1.4-2.3-2.2-3.4a17.7,17.7,0,0,0-5.5-5.4,15.2,15.2,0,0,0-6.5-2.2A26.8,26.8,0,0,0,58,1.7,8,8,0,0,0,53.7,3H50.4a19.1,19.1,0,0,0-9,3.2,10.2,10.2,0,0,0-3.9,8,2.4,2.4,0,0,0-2.2.1h-.2l-1,.6A19,19,0,0,0,30.5,19a22.8,22.8,0,0,0-4.1,11.2,26.2,26.2,0,0,0,0,5.6,6.5,6.5,0,0,0,.4,1.3,27.8,27.8,0,0,1,.1-9.1,23.7,23.7,0,0,1,4-9.2A19.9,19.9,0,0,1,34,15.4c1-.8,2.5-1.6,3.7-.8h.1a2,2,0,0,1,.6.7l.3.3c-3.8,3.1-6,8-7.2,12.6a33.4,33.4,0,0,0-.6,14.4l.3,1.4c.1,0,.1.1.2.2s-.3-1.4-.4-2.2a35.2,35.2,0,0,1,.9-14.8c1.3-4.3,3.5-8.6,6.9-11.5l.6.8a13.7,13.7,0,0,0,1.8,1.6c.8,2.4.4,5.2-.2,7.6A62.3,62.3,0,0,1,38.6,33c-.9,2.4-1.7,4.8-2.4,7.3h.2c1.3-4.5,3.2-8.8,4.5-13.4.7-2.7,1.4-5.9.6-8.7l.7.4,2.2,1.1c1.2,1.5,1.4,3.8,1.5,5.6a32,32,0,0,1-.1,6.2C45.3,36,43.3,40,41.4,44c0,.1.1.1.1.2,1.9-4,3.9-8,4.5-12.4a28.3,28.3,0,0,0,.1-6.5c-.1-1.8-.3-3.9-1.4-5.4l1.3.5,4.2,1.9a33.3,33.3,0,0,0,8.7,2.5,33.8,33.8,0,0,0,9-.5l3.9-.7a16.8,16.8,0,0,0,3.2-.9l.2-.2h.1c.1-.1,0-.2-.1-.2a10.4,10.4,0,0,1-3.8,1.1l-3.9.7a29,29,0,0,1-9.3.4,32.4,32.4,0,0,1-9-2.8l-4.1-1.9-.6-.3h-.1a21.1,21.1,0,0,1-3-1.6h-.2l-.4-.3c1.9-1.4,4.3-1.6,6.6-1.6a35.3,35.3,0,0,1,7.2.8A82.7,82.7,0,0,1,63,19.5a38.3,38.3,0,0,0,8.9,2H75a5.6,5.6,0,0,0,2.2-.3h0a10.7,10.7,0,0,0,3.6,4,6.8,6.8,0,0,0,5.4.2C88.3,24.5,88.6,22.2,88.4,20ZM73.9,21.4a22.8,22.8,0,0,1-4.5-.4,55.4,55.4,0,0,1-8.8-2.6,41,41,0,0,0-8.3-2.3,29.2,29.2,0,0,0-6.6-.3,8.8,8.8,0,0,0-5,1.6,6.5,6.5,0,0,1-1.6-1.7,1.5,1.5,0,0,1-.5-.6h.1c.9-1.9,3.1-2.8,5-3.4a19.2,19.2,0,0,1,6.3-.9c5.3.1,10.4,2.5,14.9,5a69.2,69.2,0,0,0,9.5,4.6l2.6.9A10.6,10.6,0,0,1,73.9,21.4Z"/><path class="cls-53" d="M74.9,13.6c-.5,2-4.2,1.7-5.5,2.7s1.8,3.8,3.7,5.1a1.6,1.6,0,0,1,.2,2.8h0a14.3,14.3,0,0,1-7.4,2.7,2.8,2.8,0,0,1,1.7-4.3c3.3-.8.2-2.7-2.4-4.8s-1.3-3.6,1.7-5.3,1.7-2.8-.9-5.7S65.3,2.9,67.1,2A28.4,28.4,0,0,1,76,6.6c-1.3.7-3.7-.4-4.4.2S75.4,11.5,74.9,13.6Z"/><path class="cls-54" d="M72.9,47c-3.6-2.1-5.5-7.2-4.4-11.2.1-.1-.1-.2-.2-.1a10.8,10.8,0,0,0,4.4,11.4,5.7,5.7,0,0,1-2.5,1.1,4.5,4.5,0,0,1-3.6,0,.1.1,0,1,0-.1.2,4.5,4.5,0,0,0,3.6.1c.9-.3,2.2-.6,2.8-1.4S73,47,72.9,47Z"/><path class="cls-55" d="M60.7,135l-1.5-12.5c-.3-1.8-.6-5-1-9.8a18.9,18.9,0,0,1-.3-2.9H55.4a4.2,4.2,0,0,0-1.6.4,2.5,2.5,0,0,0-1.1.4c.1,1.5,1.6,14.7,1.6,14.7s-4,.1-5.9.7l-2.1.8c-.1-.3-1.5-12.2-2.1-15l-1-.2h-.6a7.6,7.6,0,0,0-2.9.7,1.8,1.8,0,0,0-.9,1.3c.9,5.2,1.7,10,2.3,14.4s1.3,8.5,1.7,12.2.8,6.4,1.1,9.5.6,6.2.8,9.3l1,.4h.8l1.9-.3a3.6,3.6,0,0,0,1.1-.4c0-2.3-.2-5.4-.4-8s-2.4-20-2.4-20a14.3,14.3,0,0,1,2.2-.4l1.7-.3,4.4-.7c.2,1.6,2.9,25.2,3.2,28a15.5,15.5,0,0,0,2.2,0l1.4-.3,1.5-.8-.8-7.4C62.1,145.4,61.5,140.8,60.7,135Z"/><path class="cls-55" d="M71.2,144.5c-.4-3.6-.9-7.4-1.5-11.3s-1.1-7.9-1.8-12.2H65.3l-1.3.3-1.3.4c.3,4.5.6,7.9.8,10.3s.5,4.5.7,6.2.7,5.3,1.1,8.3,1,6.1,1.6,9.6l1.4.2h.9l1.7-.4,1.5-1q-.2-1.7-.6-5.1C71.6,147.4,71.4,145.7,71.2,144.5Z"/><path class="cls-55" d="M64.4,117.1l1.2-.2,1.4-.5a4.9,4.9,0,0,0,.3-1.5,1.4,1.4,0,0,0,0-.9,3.7,3.7,0,0,0-.2-.9l-.6-1.4-1.4-.2h-1l-1.3.2-1.4.5c-.1.7-.2,1.3-.2,1.5v.8a5.4,5.4,0,0,0,.3,1A13.1,13.1,0,0,0,62,117h1.5A1.4,1.4,0,0,0,64.4,117.1Z"/><path class="cls-55" d="M87.8,122.3a3.4,3.4,0,0,0-1.2-1.7,4.1,4.1,0,0,0-2.1-1c-.8.5-5.7,5.4-7.2,6.9-.4-2.2-2.4-6.5-3.2-6.8a4.2,4.2,0,0,0-1.8.7,6.5,6.5,0,0,0-1.8,1.5c.7,3,1.3,6.1,1.9,9.4s1.1,6.7,1.5,10.4c.2,1.6.4,3.4.6,5.5s.4,4.5.6,7.2a2.7,2.7,0,0,0,1.5.5h4.2L81,153c-.4-2.1-2.5-19.5-2.7-21.4A103.7,103.7,0,0,1,87.8,122.3Z"/><path class="cls-55" d="M104.8,147.4V147c-.1-.2,0-.7-.1-.5-3.1,3.1-8.2,1.8-9.7-.8s-2.2-12-1.8-14c0,0,3.2.1,4.5,0s3.9-.1,4.6-.8.3-1.7.3-2.5a24.4,24.4,0,0,0-.1-2.7,15.7,15.7,0,0,0-2.5-7.2,4.9,4.9,0,0,0-4.6-2.3c-2.5.4-4.5,2.5-5.9,6.6a34.1,34.1,0,0,0-1,14.6c.7,5.2,2,9,4,11.4a8.4,8.4,0,0,0,8,3.1,4.7,4.7,0,0,0,3.3-1.5A3.3,3.3,0,0,0,104.8,147.4Zm-9.9-26.6c1-.9,2.6-.3,3.1,1.2a28,28,0,0,1,1,6.6l-5.9.3C93.1,126.3,94,121.6,94.9,120.8Z"/><path class="cls-55" d="M79.8,196.1c-.3-1.8-.6-4.6-.9-8.5s-.7-6.9-1-9c-.5-3.8-1.4-6.5-2.6-8.1a5.5,5.5,0,0,0-5.3-1.8,9.3,9.3,0,0,0-3.3,1.2,14.5,14.5,0,0,0-2.9,2.7,6.1,6.1,0,0,0-2.2-1.6,4.6,4.6,0,0,0-2.6-.2,6.1,6.1,0,0,0-2.4.7,12.5,12.5,0,0,0-2.3,2.3c-.1-.4-.5-2-1.5-2.4s-2.8.5-3.1.6a5.3,5.3,0,0,0-1.3,1.3q1.2,5.4,2.1,10.2c.6,3.2,1.1,6.1,1.4,8.8s.8,6.7.9,8.5a27.1,27.1,0,0,1-.4,5.1l2.3.6h1.8l.9-.2c.3-.1.2.3.3-.1,1.4-4.7-2.7-27.5-2.8-28.5a8.4,8.4,0,0,1,1.8-1.5,2.5,2.5,0,0,1,1.4-.6,2.8,2.8,0,0,1,2.8,1.4c.5,1.1,1.8,11.7,1.8,11.7s1.8,13.8,1.9,15.1.4.4.9.5h2.9l1.3-.8V203c-.1-1-.6-4.8-1-7.5s-.8-5.1-1.1-7.1-1.4-11.7-1.1-12.8a3.1,3.1,0,0,1,2.1-2.3c1.2-.1,2.1.8,2.7,2a36.5,36.5,0,0,1,2.4,9.9c.4,2.6,1.5,15.1,1.7,18.7h1.8l1.6-.5,2-1c-.2-1.1-.4-2.2-.5-3.3S79.9,197.1,79.8,196.1Z"/><path class="cls-55" d="M95.7,197.2a4.3,4.3,0,0,0-.1-.5H94.1c-2.3.3-4.1-.2-5.1-1.6s-1.8-4.1-2.4-8.3c-.1-.6-.1-1.2-.2-1.8s-.1-1.7-.2-3a29.6,29.6,0,0,1,3.1-.3c1.1-.1,1.7-.1,1.7-.2l1-.2,1.1-.3a22.8,22.8,0,0,0,.2-2.6,26.5,26.5,0,0,0-.2-2.7,17.4,17.4,0,0,0-2.3-7.1c-1.1-1.8-2.4-2.6-3.8-2.4s-3.7,2.5-4.7,6.5a38.2,38.2,0,0,0-.4,14.5c.7,5.2,1.9,9,3.7,11.5a6.8,6.8,0,0,0,6.7,3.2,4,4,0,0,0,2.7-1.5,3.8,3.8,0,0,0,.8-3C95.8,197.5,95.7,197.3,95.7,197.2Zm-9.6-23.8c.2-1.1.5-1.7,1-1.7a1.3,1.3,0,0,1,1.4.8,8.2,8.2,0,0,1,.9,3.2,4.5,4.5,0,0,0,.1.8,6.1,6.1,0,0,0,.1,1.4l-3.6.9A28.8,28.8,0,0,1,86.1,173.4Z"/><path class="cls-55" d="M104.8,197.9a5.8,5.8,0,0,0-.2-1c-.1-.5-.3-1.1-.5-1.9h-1.3l-1.1.2h-.6l-.7.4v2.3c.1.1.1.3.2.6a3.6,3.6,0,0,0,.3,1.1l1.2.4h1l.7-.2,1-.4v-.3A2.4,2.4,0,0,0,104.8,197.9Z"/><path class="cls-55" d="M100.9,190.7a.7.7,0,0,0,.6.1l.7-.3.6-.7c-.2-3.7-.6-7.5-1-11.5s-1-8.2-1.5-12.5c-.4-2.3-.6-4.1-.8-5.2s-.3-2.3-.4-3.3a5.5,5.5,0,0,0-1.4-.9,4,4,0,0,0-1.6-.1h-.6l-.6.2c.3,2.5.6,4.8.8,6.9s.5,3.8.7,5.3.9,6.2,1.5,9.7,1.3,7.4,2.2,11.7C100.4,190.5,100.6,190.7,100.9,190.7Z"/><path id="Smile" class="cls-22" d="M62.5,52.9c.2.2,7.6,2.7,12.2-.4,0,0-2,6.2-5.2,6.1A7.1,7.1,0,0,1,62.5,52.9Z"/><path id="Sad" class="cls-56" d="M73.9,55.9c-1.8-2.8-6.9-2.9-8.6,0-.2.2.2.4.3.2,1.6-2.6,6.3-2.5,7.9,0C73.7,56.3,74,56.1,73.9,55.9Z"/></g></g></svg>