<?xml version="1.0" encoding="utf-8"?>
<!-- Generator: Adobe Illustrator 26.3.1, SVG Export Plug-In . SVG Version: 6.00 Build 0)  -->
<svg version="1.1" id="Layer_1" xmlns="http://www.w3.org/2000/svg" xmlns:xlink="http://www.w3.org/1999/xlink" x="0px" y="0px"
	 viewBox="0 0 50 50" enable-background="new 0 0 50 50" xml:space="preserve">
<a xlink:href="https://www.instagram.com/mehtaarbind/" >
	<g>
		<circle fill="#020203" cx="25.26" cy="24.74" r="17.69"/>
		<g>
			<g>
				<path fill="#FFFFFF" d="M30.75,18.04c-0.67,0-1.22,0.54-1.22,1.22c0,0.67,0.54,1.22,1.22,1.22c0.67,0,1.22-0.54,1.22-1.22
					C31.97,18.59,31.43,18.04,30.75,18.04z"/>
				<path fill="#FFFFFF" d="M25.35,19.6c-2.82,0-5.11,2.29-5.11,5.11c0,2.82,2.29,5.11,5.11,5.11c2.82,0,5.11-2.29,5.11-5.11
					C30.46,21.89,28.16,19.6,25.35,19.6z M25.35,27.98c-1.8,0-3.27-1.47-3.27-3.27c0-1.8,1.47-3.27,3.27-3.27s3.27,1.47,3.27,3.27
					C28.62,26.51,27.15,27.98,25.35,27.98z"/>
				<path fill="#FFFFFF" d="M29.4,35.08h-8.28c-3.44,0-6.23-2.79-6.23-6.23v-8.28c0-3.44,2.79-6.23,6.23-6.23h8.28
					c3.44,0,6.23,2.79,6.23,6.23v8.28C35.63,32.29,32.84,35.08,29.4,35.08z M21.12,16.29c-2.36,0-4.28,1.92-4.28,4.28v8.28
					c0,2.36,1.92,4.28,4.28,4.28h8.28c2.36,0,4.28-1.92,4.28-4.28v-8.28c0-2.36-1.92-4.28-4.28-4.28H21.12z"/>
			</g>
		</g>
	</g>
</a>
</svg>
