<?xml version="1.0" encoding="utf-8"?>
<!-- Generator: Adobe Illustrator 26.3.1, SVG Export Plug-In . SVG Version: 6.00 Build 0)  -->
<svg version="1.1" id="Layer_1" xmlns="http://www.w3.org/2000/svg" xmlns:xlink="http://www.w3.org/1999/xlink" x="0px" y="0px"
	 viewBox="0 0 50 50" enable-background="new 0 0 50 50" xml:space="preserve">
<a xlink:href="https://www.linkedin.com/in/arbind-mehta-324661170/" >
	<g>
		<circle fill="#020203" cx="25.26" cy="24.74" r="17.5"/>
		<path fill="#FFFFFF" d="M17.92,21.48h3.39v10.89h-3.39V21.48z M19.62,16.07c1.08,0,1.96,0.88,1.96,1.96
			c0,1.08-0.88,1.96-1.96,1.96c-1.09,0-1.96-0.88-1.96-1.96C17.65,16.95,18.53,16.07,19.62,16.07"/>
		<path fill="#FFFFFF" d="M23.44,21.48h3.25v1.49h0.04c0.45-0.86,1.56-1.76,3.2-1.76c3.43,0,4.06,2.25,4.06,5.19v5.97h-3.38v-5.29
			c0-1.26-0.02-2.89-1.76-2.89c-1.76,0-2.03,1.38-2.03,2.8v5.39h-3.38V21.48z"/>
	</g>
</a>
</svg>
