<?xml version="1.0" encoding="utf-8"?>
<!-- Generator: Adobe Illustrator 26.3.1, SVG Export Plug-In . SVG Version: 6.00 Build 0)  -->
<svg version="1.1" id="Layer_1" xmlns="http://www.w3.org/2000/svg" xmlns:xlink="http://www.w3.org/1999/xlink" x="0px" y="0px"
	 viewBox="0 0 50 50" enable-background="new 0 0 50 50" xml:space="preserve">
<a xlink:href="mailto:mehtaarbind67@gmail.com" >
	<g>
		<circle fill="#020203" cx="25.26" cy="24.74" r="17.69"/>
		<g>
			<path fill="#FFFFFF" d="M15.22,15.9l8.2,9.31c0.47,0.53,1.14,0.83,1.84,0.83c0.7,0,1.38-0.3,1.84-0.83l8.06-9.14
				c0.07-0.08,0.15-0.13,0.23-0.18c-0.34-0.15-0.72-0.23-1.11-0.23H16.25c-0.38,0-0.74,0.08-1.07,0.21
				C15.19,15.88,15.2,15.89,15.22,15.9z"/>
			<path fill="#FFFFFF" d="M36.64,16.96c-0.04,0.09-0.09,0.19-0.16,0.27l-8.06,9.14c-0.8,0.91-1.95,1.43-3.16,1.43
				c-1.21,0-2.36-0.52-3.16-1.43l-8.2-9.31c-0.02-0.02-0.03-0.04-0.04-0.06c-0.25,0.42-0.4,0.91-0.4,1.44v12.6
				c0,1.54,1.25,2.79,2.79,2.79h18.03c1.54,0,2.79-1.25,2.79-2.79v-12.6C37.06,17.89,36.91,17.39,36.64,16.96z"/>
		</g>
	</g>
</a>
</svg>
