<?xml version="1.0" encoding="utf-8"?>
<!-- Generator: Adobe Illustrator 26.3.1, SVG Export Plug-In . SVG Version: 6.00 Build 0)  -->
<svg version="1.1" id="Layer_1" xmlns="http://www.w3.org/2000/svg" xmlns:xlink="http://www.w3.org/1999/xlink" x="0px" y="0px"
	 viewBox="0 0 50 50" enable-background="new 0 0 50 50" xml:space="preserve">
<circle id="upwork" fill-rule="evenodd" clip-rule="evenodd" cx="25.26" cy="24.74" r="17.5"/>
<path fill-rule="evenodd" clip-rule="evenodd" fill="#FFFFFF" d="M13.98,15.35c0.41,0,0.81,0,1.22,0c0.52,0,1.03,0,1.57,0
	c0,0.07,0,0.16,0,0.25c0,2.94,0,5.89,0,8.83c0,1.47,0.69,2.71,1.75,3.18c1.43,0.64,3-0.35,3.42-2.19c0.08-0.34,0.11-0.71,0.11-1.07
	c0.01-2.92,0-5.85,0-8.77c0-0.09,0-0.17,0-0.27c0.07,0,0.13-0.01,0.18-0.01c0.81,0,1.61,0,2.42,0c0.13,0,0.19,0.04,0.23,0.2
	c0.52,2.12,1.25,4.13,2.13,6.06c0.19,0.41,0.4,0.81,0.61,1.26c0.05-0.19,0.09-0.34,0.13-0.49c0.4-1.52,1.05-2.85,2.08-3.84
	c0.79-0.76,1.69-1.18,2.69-1.29c1.83-0.2,3.32,0.63,4.54,2.29c0.86,1.17,1.32,2.56,1.42,4.15c0.12,1.95-0.33,3.68-1.37,5.14
	c-1.34,1.88-3.02,2.65-5.02,2.33c-0.94-0.15-1.81-0.53-2.62-1.13c-0.06-0.05-0.13-0.09-0.21-0.14c-0.41,2.46-0.82,4.91-1.23,7.39
	c-0.95,0-1.89,0-2.84,0c0.14-0.87,0.29-1.74,0.43-2.61c0.41-2.48,0.82-4.96,1.23-7.44c0.01-0.08,0-0.18-0.03-0.24
	c-0.73-1.26-1.37-2.59-1.98-3.98c0,0.07,0,0.14,0,0.22c-0.01,0.71,0.02,1.42-0.04,2.12c-0.22,2.34-1.17,4.1-2.82,5.26
	c-0.78,0.55-1.63,0.82-2.51,0.82c-1.1,0.01-2.13-0.38-3.04-1.16c-1.25-1.07-2.02-2.55-2.31-4.4c-0.07-0.42-0.09-0.86-0.09-1.29
	c-0.02-1.32-0.01-2.65-0.02-3.97c0-0.12-0.01-0.24-0.02-0.37C13.98,18.59,13.98,16.97,13.98,15.35z M33.11,20.68
	c-0.68,0.01-1.27,0.26-1.76,0.87c-0.39,0.48-0.68,1.06-0.83,1.71c-0.2,0.89-0.36,1.8-0.54,2.7c-0.03,0.13-0.01,0.19,0.07,0.27
	c0.41,0.43,0.88,0.76,1.37,1c0.54,0.27,1.11,0.44,1.69,0.42c0.75-0.03,1.4-0.4,1.94-1.07c0.55-0.69,0.86-1.51,0.86-2.48
	C35.92,22.19,34.65,20.67,33.11,20.68z"/>
</svg>
