<?xml version="1.0" encoding="utf-8"?>
<!-- Generator: Adobe Illustrator 26.3.1, SVG Export Plug-In . SVG Version: 6.00 Build 0)  -->
<svg version="1.1" id="Layer_1" xmlns="http://www.w3.org/2000/svg" xmlns:xlink="http://www.w3.org/1999/xlink" x="0px" y="0px"
	 viewBox="0 0 50 50" enable-background="new 0 0 50 50" xml:space="preserve">
<a xlink:href="https://www.youtube.com/channel/UCqT-KF0RRcj0EMwTARJW-zA" >
	<g>
		<circle fill="#020203" cx="25.26" cy="24.74" r="17.69"/>
		<path fill="#FFFFFF" d="M34.73,22.21c0-2.35-1.9-4.25-4.25-4.25H19.62c-2.35,0-4.25,1.9-4.25,4.25v5.06c0,2.35,1.9,4.25,4.25,4.25
			h10.86c2.35,0,4.25-1.9,4.25-4.25V22.21z M28.35,25.11l-4.87,2.41c-0.19,0.1-0.84-0.03-0.84-0.25v-4.95
			c0-0.22,0.65-0.36,0.85-0.25l4.66,2.54C28.34,24.72,28.54,25.01,28.35,25.11z"/>
	</g>
</a>
</svg>
